<svg width="18" height="18" viewBox="0 0 18 18" fill="none" xmlns="http://www.w3.org/2000/svg">
<path d="M8.99984 0.666687C4.39984 0.666687 0.666504 4.40002 0.666504 9.00002C0.666504 13.6 4.39984 17.3334 8.99984 17.3334C13.5998 17.3334 17.3332 13.6 17.3332 9.00002C17.3332 4.40002 13.5998 0.666687 8.99984 0.666687ZM10.1748 14.075V15.6667H7.94984V14.0584C6.52484 13.7584 5.3165 12.8417 5.22484 11.225H6.85817C6.9415 12.1 7.5415 12.7834 9.0665 12.7834C10.6998 12.7834 11.0665 11.9667 11.0665 11.4584C11.0665 10.7667 10.6998 10.1167 8.84151 9.67502C6.77484 9.17502 5.35817 8.32502 5.35817 6.61669C5.35817 5.18335 6.5165 4.25002 7.94984 3.94169V2.33335H10.1748V3.95835C11.7248 4.33335 12.4998 5.50835 12.5498 6.78335H10.9165C10.8748 5.85835 10.3832 5.22502 9.0665 5.22502C7.8165 5.22502 7.0665 5.79169 7.0665 6.59169C7.0665 7.29169 7.60817 7.75002 9.2915 8.18335C10.9748 8.61669 12.7748 9.34169 12.7748 11.4417C12.7665 12.9667 11.6248 13.8 10.1748 14.075Z" fill="#E49C40"/>
</svg>
